<?xml version="1.0" encoding="utf-8"?>
<!-- Generator: Adobe Illustrator 22.0.1, SVG Export Plug-In . SVG Version: 6.00 Build 0)  -->
<svg version="1.1" id="Layer_1" xmlns="http://www.w3.org/2000/svg" xmlns:xlink="http://www.w3.org/1999/xlink" x="0px" y="0px"
	 viewBox="0 0 2834.6 566.9" style="enable-background:new 0 0 2834.6 566.9;" xml:space="preserve">
<g>
	<path d="M144.7,360c9.3,54.2,49.1,88,102.4,88c39.8,0,73.6-19.5,90.6-50.8l99,27.1c-38.9,76.2-107.5,119.4-190.5,119.4
		c-124.4,0-213.3-88-213.3-209.9c0-122.7,85.5-209.1,206.6-209.1c125.3,0,212.5,88,212.5,214.2l-0.8,21.2H144.7z M341.1,298.2
		c-9.3-51.6-46.6-83-99.9-83c-51.6,0-86.3,29.6-96.5,83H341.1z"/>
	<path d="M861.7,485.3c-44.9,40.6-91.4,58.4-150.7,58.4c-119.4,0-207.4-88-207.4-207.4c0-123.6,86.3-211.6,208.2-211.6
		c58.4,0,106.7,20.3,156.6,65.2l-72,65.2c-23.7-23.7-49.1-34.7-80.4-34.7c-59.3,0-103.3,48.3-103.3,112.6
		c0,66.9,44.9,115.1,107.5,115.1c27.9,0,48.3-8.5,76.2-33L861.7,485.3z"/>
	<path d="M1098.7,251.6v-6.8c0-23.7-21.2-40.6-49.9-40.6c-26.2,0-43.2,14.4-43.2,35.6c0,10.2,4.2,20.3,11,25.4
		c11.9,9.3,12.7,9.3,66.9,26.2c88,27.1,122.7,61.8,122.7,125.3c0,76.2-61,127-152.4,127c-93.1,0-149.8-47.4-154.1-128.7h103.3
		c5.1,33.9,20.3,49.1,51.6,49.1c25.4,0,43.2-15.2,43.2-37.2c0-23.7-15.2-34.7-72.8-52.5c-84.7-25.4-122.7-63.5-122.7-125.3
		c0-74.5,60.1-124.4,151.5-124.4c89.7,0,143.9,47.4,146.5,127H1098.7z"/>
	<path d="M1401.8,415c0,18.6,6.8,23.7,30.5,25.4h18.6v89.7h-85.5c-52.5-1.7-72-22.9-71.1-74.5V227.1h-44.9v-90.6h44.9v-105h107.5
		v105h49.1v90.6h-49.1V415z"/>
	<path d="M1828.4,138.2h107.5v391.9h-107.5V476c-36.4,46.6-78.7,67.7-136.3,67.7c-110.1,0-188.8-85.5-188.8-204.9
		c0-123.6,83-214.2,197.2-214.2c53.3,0,89.7,18.6,127.8,63.5V138.2z M1618.5,337.1c0,68.6,44.9,120.2,103.3,120.2
		c60.1,0,108.4-55.9,108.4-123.6c0-69.4-44-118.5-107.5-118.5C1661.6,215.2,1618.5,265.2,1618.5,337.1z"/>
	<path d="M2213.6,251.6v-6.8c0-23.7-21.2-40.6-49.9-40.6c-26.2,0-43.2,14.4-43.2,35.6c0,10.2,4.2,20.3,11,25.4
		c11.9,9.3,12.7,9.3,66.9,26.2c88,27.1,122.7,61.8,122.7,125.3c0,76.2-61,127-152.4,127c-93.1,0-149.8-47.4-154.1-128.7h103.3
		c5.1,33.9,20.3,49.1,51.6,49.1c25.4,0,43.2-15.2,43.2-37.2c0-23.7-15.2-34.7-72.8-52.5c-84.7-25.4-122.7-63.5-122.7-125.3
		c0-74.5,60.1-124.4,151.5-124.4c89.7,0,143.9,47.4,146.5,127H2213.6z"/>
	<path d="M2487,360c9.3,54.2,49.1,88,102.4,88c39.8,0,73.6-19.5,90.6-50.8l99,27.1c-38.9,76.2-107.5,119.4-190.5,119.4
		c-124.4,0-213.3-88-213.3-209.9c0-122.7,85.5-209.1,206.6-209.1c125.3,0,212.5,88,212.5,214.2l-0.8,21.2H2487z M2683.4,298.2
		c-9.3-51.6-46.6-83-99.9-83c-51.6,0-86.3,29.6-96.5,83H2683.4z"/>
</g>
</svg>
