<svg id="Сгруппировать_2" data-name="Сгруппировать 2" xmlns="http://www.w3.org/2000/svg" width="1768.814" height="1079.862" viewBox="0 0 1768.814 1079.862">
  <path id="Контур_23" data-name="Контур 23" d="M240.018,729.155c14.484,53.541,64.094,86.7,64.094,86.7s26.128-53.648,11.644-107.189-64.094-86.7-64.094-86.7S225.535,675.615,240.018,729.155Z" transform="translate(32.628 208.765)" fill="#3f3d56"/>
  <path id="Контур_24" data-name="Контур 24" d="M291.406,695.688c39.744,38.689,44.6,98.163,44.6,98.163s-59.583-3.253-99.327-41.942-44.6-98.163-44.6-98.163S251.662,657,291.406,695.688Z" transform="translate(2.523 230.725)" fill="#6c63ff"/>
  <rect id="Прямоугольник_1" data-name="Прямоугольник 1" width="1399.501" height="4.319" transform="translate(191.888 1075.542)" fill="#2f2e41"/>
  <path id="Контур_25" data-name="Контур 25" d="M310.68,790.962H254.526V734.808H310.68Zm-51.833-4.319h47.514V739.129H258.847Z" transform="translate(45.675 286.741)" fill="#3f3d56"/>
  <rect id="Прямоугольник_2" data-name="Прямоугольник 2" width="475.889" height="475.889" transform="translate(0 42.82)" fill="#3f3d56"/>
  <path id="Контур_26" data-name="Контур 26" d="M415.2,274.429v10.922a49.387,49.387,0,0,1-16.971-19.236c-6.336-12.958-6.135-27.894-5.934-42.342.229-17.172.459-33.37-10.435-43.919-11.983-11.582-31.162-9.948-49.71-8.371-2.179.172-4.358.373-6.508.545-18.606,1.4-39.333-3.3-49.395-16H288.8c9.2,6.192,23.279,8.371,36.208,7.4,2.093-.143,4.243-.344,6.393-.516,19.523-1.663,41.655-3.555,56.419,10.751,13.589,13.13,13.331,31.994,13.073,50.226-.2,13.445-.373,27.321,5.074,38.444a39.316,39.316,0,0,0,9.231,12.1Z" transform="translate(60.686 -113.21)" fill="#6c63ff"/>
  <path id="Контур_27" data-name="Контур 27" d="M465.733,349.969v12.786a54.369,54.369,0,0,0-6.995-7.54C443.945,342.171,422.7,339.3,402.176,336.5c-2.666-.344-5.275-.717-7.884-1.089-33.284-4.788-53.925-16.226-63.07-34.889-6.336-12.958-6.135-27.894-5.934-42.342.229-17.172.459-33.37-10.435-43.919-11.983-11.582-31.162-9.948-49.71-8.371-2.179.172-4.358.372-6.508.545-23.909,1.806-51.344-6.479-55.1-28.869-1.29-7.683.631-14.735,3.469-21.53h9.4c-3.154,6.823-5.5,13.417-4.386,20.1,2.838,17.086,25.83,23.221,45.983,21.7,2.093-.143,4.243-.344,6.393-.516,19.523-1.663,41.655-3.555,56.419,10.75,13.589,13.13,13.331,31.994,13.073,50.226-.2,13.445-.373,27.321,5.074,38.444,7.8,15.94,26.289,25.8,56.562,30.159,2.58.373,5.189.745,7.8,1.089,21.788,2.953,44.349,6.02,61.12,20.784Q465.087,349.325,465.733,349.969Z" transform="translate(10.156 -113.21)" fill="#6c63ff"/>
  <path id="Контур_28" data-name="Контур 28" d="M522.019,565.495v17.66c-10.349-11.009-19.007-26.117-25.629-45.009-1.4-4.013-2.752-8.113-4.1-12.213-7.425-22.447-15.108-45.639-33.4-60.461-19.552-15.825-47.56-19.322-74.651-22.705-3.469-.43-6.938-.86-10.378-1.319-43.919-5.82-71.125-19.666-83.195-42.314-8.371-15.739-8.113-33.857-7.855-51.373.315-20.813.631-40.479-13.761-53.265-15.8-14.047-41.11-12.069-65.564-10.148-2.9.229-5.762.459-8.572.659-31.564,2.179-67.771-7.855-72.7-35-2.437-13.3,3.784-25.085,9.776-36.494,3.44-6.536,6.708-12.757,8.371-19.15,3.5-13.159-.831-27.98-10.435-38.329h14.047a50.509,50.509,0,0,1,7.425,40.794c-1.978,7.482-5.647,14.477-9.2,21.243-5.476,10.378-10.607,20.182-8.8,30.216,3.784,20.7,34.086,28.152,60.661,26.317,2.781-.2,5.619-.43,8.457-.631,25.744-2.035,54.928-4.3,74.422,13.044,17.917,15.911,17.573,38.788,17.229,60.891-.229,16.312-.487,33.14,6.68,46.643,10.292,19.293,34.717,31.277,74.652,36.58,3.383.459,6.823.889,10.263,1.319,28.783,3.583,58.511,7.282,80.614,25.2,20.727,16.8,28.9,41.425,36.752,65.248,1.347,4.071,2.695,8.084,4.071,12.069A135.873,135.873,0,0,0,522.019,565.495Z" transform="translate(-46.13 -113.21)" fill="#6c63ff"/>
  <path id="Контур_29" data-name="Контур 29" d="M77,320.24c13.073,15.825,40.795,21.673,65.65,19.953,2.809-.2,5.676-.43,8.572-.659,24.454-1.921,49.768-3.9,65.564,10.148,14.391,12.786,14.076,32.452,13.761,53.265-.258,17.516-.516,35.634,7.855,51.373,12.069,22.648,39.275,36.494,83.194,42.314,3.44.459,6.909.889,10.378,1.319,27.091,3.383,55.1,6.88,74.651,22.705,18.29,14.821,25.973,38.014,33.4,60.461,1.347,4.1,2.695,8.2,4.1,12.213,1.29,3.7,2.666,7.224,4.1,10.636h12.27c-2.15-4.673-3.985-9.346-5.562-13.818-1.376-3.985-2.723-8-4.071-12.069-7.855-23.823-16.025-48.449-36.752-65.248-22.1-17.917-51.832-21.616-80.614-25.2-3.44-.43-6.88-.86-10.263-1.319-39.934-5.3-64.36-17.287-74.651-36.58-7.167-13.5-6.909-30.331-6.68-46.643.344-22.1.688-44.98-17.23-60.891-19.494-17.344-48.678-15.079-74.422-13.044-2.838.2-5.676.43-8.457.631-26.575,1.835-56.877-5.619-60.662-26.317-1.806-10.034,3.326-19.838,8.8-30.216,3.555-6.766,7.224-13.761,9.2-21.243,5.39-20.469-3.7-43.145-22.132-55.53v14.047c10.062,10.378,14.649,25.543,11.094,39.017-1.663,6.393-4.931,12.614-8.371,19.15-.917,1.749-1.835,3.469-2.723,5.246Z" transform="translate(-77 -85.258)" fill="#6c63ff"/>
  <path id="Контур_30" data-name="Контур 30" d="M287.509,500.125h-11.9c-.631-1.864-1.233-3.755-1.863-5.648-7.425-22.447-15.108-45.639-33.4-60.461C220.8,418.192,192.79,414.7,165.7,411.312c-3.469-.43-6.938-.86-10.378-1.319C116.562,404.861,90.789,393.452,77,375.277V346.751a54.1,54.1,0,0,0,5.3,16.341c10.292,19.293,34.717,31.277,74.652,36.58,3.383.459,6.823.889,10.263,1.319,28.783,3.583,58.511,7.282,80.614,25.2,20.727,16.8,28.9,41.425,36.752,65.248C285.559,494.362,286.506,497.259,287.509,500.125Z" transform="translate(-77 18.583)" fill="#6c63ff"/>
  <rect id="Прямоугольник_3" data-name="Прямоугольник 3" width="475.889" height="475.889" transform="translate(645.029 42.82)" fill="#3f3d56"/>
  <path id="Контур_31" data-name="Контур 31" d="M687.786,190.432A151.952,151.952,0,0,1,458.442,321.187V156.03H683.859A151.02,151.02,0,0,1,687.786,190.432Z" transform="translate(186.587 -113.21)" fill="#6c63ff"/>
  <circle id="Эллипс_7" data-name="Эллипс 7" cx="91.738" cy="91.738" r="91.738" transform="translate(905.908 80.088)" fill="#6c63ff"/>
  <circle id="Эллипс_8" data-name="Эллипс 8" cx="65.936" cy="65.936" r="65.936" transform="translate(725.3 300.832)" fill="#6c63ff"/>
  <path id="Контур_32" data-name="Контур 32" d="M779.694,394.618V472.6H685.349a65.941,65.941,0,0,1,94.346-77.977Z" transform="translate(341.223 46.114)" fill="#6c63ff"/>
  <circle id="Эллипс_9" data-name="Эллипс 9" cx="17.201" cy="17.201" r="17.201" transform="translate(940.31 346.7)" fill="#6c63ff"/>
  <rect id="Прямоугольник_4" data-name="Прямоугольник 4" width="475.889" height="475.889" transform="translate(1292.926 42.82)" fill="#3f3d56"/>
  <path id="Контур_33" data-name="Контур 33" d="M1073.792,156.03V350.972H841.58v11.467h243.679V156.03Z" transform="translate(451.346 -113.21)" fill="#6c63ff"/>
  <path id="Контур_34" data-name="Контур 34" d="M1187.158,521.306l19.7-28.009V473.372l-33.713,47.933ZM1107.174,316.1,1001.647,466.177l78.407,55.129h19.924L1017.615,463.4l92.34-131.328,96.9,68.144V386.193Z" transform="translate(561.956 -2.597)" fill="#6c63ff"/>
  <path id="Контур_35" data-name="Контур 35" d="M985.1,304.86l-60.805,60.8L985.1,426.47l60.8-60.8Zm-44.608,60.8L985.1,321.057l44.607,44.607L985.1,410.272Z" transform="translate(508.503 -10.364)" fill="#6c63ff"/>
  <circle id="Эллипс_10" data-name="Эллипс 10" cx="43.195" cy="43.195" r="43.195" transform="translate(190.056 0)" fill="#f2f2f2"/>
  <circle id="Эллипс_11" data-name="Эллипс 11" cx="43.195" cy="43.195" r="43.195" transform="translate(857.411 0)" fill="#f2f2f2"/>
  <circle id="Эллипс_12" data-name="Эллипс 12" cx="43.195" cy="43.195" r="43.195" transform="translate(1494.529 0)" fill="#f2f2f2"/>
  <circle id="Эллипс_13" data-name="Эллипс 13" cx="41.035" cy="41.035" r="41.035" transform="translate(815.296 212.733)" fill="#ffb8b8"/>
  <path id="Контур_36" data-name="Контур 36" d="M570.625,296.738s10.8,56.153,6.479,66.952,60.472-4.32,60.472-4.32-12.958-56.153-10.8-69.111S570.625,296.738,570.625,296.738Z" transform="translate(264.108 -23.533)" fill="#ffb8b8"/>
  <path id="Контур_37" data-name="Контур 37" d="M451.479,276.507l4.319,58.312L477.235,426.4l6.639,25.046,10.8-38.875-10.8-88.549-3.668-39.866Z" transform="translate(311.984 191.074)" fill="#ffb8b8"/>
  <path id="Контур_38" data-name="Контур 38" d="M677.584,402.106v60.472s-6.479,77.75-19.438,97.188-17.278-77.75-17.278-77.75l10.154-71.271Z" transform="translate(312.649 56.835)" fill="#ffb8b8"/>
  <path id="Контур_39" data-name="Контур 39" d="M551.164,516.2s-10.8,12.958-2.16,144.7-4.319,226.772,23.757,226.772c0,0-8.639,28.076,15.118,30.236s34.556,4.319,36.715-2.16,6.479-36.715,0-36.715c0,0,0,8.639,4.319-25.917s4.319-198.694,15.118-220.292l34.555,79.909s0,36.715,6.479,53.993,17.278,116.625,17.278,116.625l-2.16,15.118s51.833,8.639,53.993,0,2.16-21.6,0-25.917-2.16-4.319,2.16-12.958,4.319-15.118,2.16-21.6-2.16-146.861-2.16-146.861S752.019,520.518,726.1,511.879,551.164,516.2,551.164,516.2Z" transform="translate(246.853 130.639)" fill="#2f2e41"/>
  <path id="Контур_40" data-name="Контур 40" d="M581.694,740.556l-17.277,30.235s-27-9.719-21.6,15.118c46.434,3.24,78.83-1.08,78.83-1.08s10.8,4.319,12.958-2.16-5.4-29.156-11.878-29.156S581.694,740.556,581.694,740.556Z" transform="translate(244.4 290.713)" fill="#2f2e41"/>
  <path id="Контур_41" data-name="Контур 41" d="M644.6,738.729s-17.278,38.875-10.8,41.035,64.792,10.8,69.111,12.958,25.917,4.319,28.076-8.639-10.8-17.278-10.8-17.278-23.757-4.319-30.236-25.917S644.6,738.729,644.6,738.729Z" transform="translate(306.759 283.9)" fill="#2f2e41"/>
  <path id="Контур_42" data-name="Контур 42" d="M669.256,327.437s-58.313-10.8-71.271,0-66.952,32.4-66.952,43.2,28.076,116.625,28.076,116.625-15.118,159.82,0,164.139,41.035-8.639,71.271,6.479,116.625-12.958,116.625-12.958S714.61,506.7,723.248,480.779s15.118-114.466,15.118-114.466S701.651,327.437,669.256,327.437Z" transform="translate(236.749 1.921)" fill="#8985a8"/>
  <path id="Контур_43" data-name="Контур 43" d="M555.344,347.188l-15.118,4.32s-32.4,101.507-19.438,105.826,49.674,12.958,53.993,12.958S555.344,347.188,555.344,347.188Z" transform="translate(227.556 18.885)" fill="#8985a8"/>
  <path id="Контур_44" data-name="Контур 44" d="M633.206,340.8l34.556,12.958s45.354,84.229,34.556,95.028S644,470.386,644,470.386Z" transform="translate(307.353 14.472)" fill="#8985a8"/>
  <path id="Контур_45" data-name="Контур 45" d="M601.766,250.955a23.192,23.192,0,0,0-10.265.453,26.767,26.767,0,0,0-7.295,4.785,85.372,85.372,0,0,1-12.473,8.264c-3.5,1.9-7.262,3.658-9.7,6.8a20.65,20.65,0,0,0-2.739,5.185,62.13,62.13,0,0,0-3.267,33.814,15.545,15.545,0,0,0,1.439,4.643c2.245,4.136,7.2,5.766,11.379,7.933,7.929,4.116,13.94,11.047,20.443,17.172a39.965,39.965,0,0,0,8.077,6.225c9.278,5.059,20.619,3.408,31.034,1.62a5.593,5.593,0,0,0,5.582-5.646L642.2,305.23a60.321,60.321,0,0,0,2.107-16.816c-.574-8.976-5.433-21.409-12.02-27.785C624.608,253.2,611.8,252.017,601.766,250.955Z" transform="translate(253.319 -47.871)" fill="#2f2e41"/>
  <circle id="Эллипс_14" data-name="Эллипс 14" cx="17.043" cy="17.043" r="17.043" transform="translate(560.121 1011.049)" fill="#6c63ff"/>
  <path id="Контур_46" data-name="Контур 46" d="M438.43,808.033A49.236,49.236,0,1,1,487.666,758.8,49.236,49.236,0,0,1,438.43,808.033Zm0-94.685A45.449,45.449,0,1,0,483.879,758.8a45.449,45.449,0,0,0-45.449-45.449Z" transform="translate(138.735 269.295)" fill="#2f2e41"/>
  <circle id="Эллипс_15" data-name="Эллипс 15" cx="17.043" cy="17.043" r="17.043" transform="translate(1389.455 1013.208)" fill="#6c63ff"/>
  <path id="Контур_47" data-name="Контур 47" d="M928.862,809.31A49.236,49.236,0,1,1,978.1,760.074,49.236,49.236,0,0,1,928.862,809.31Zm0-94.685a45.449,45.449,0,1,0,45.448,45.449,45.449,45.449,0,0,0-45.448-45.449Z" transform="translate(477.636 270.177)" fill="#2f2e41"/>
  <circle id="Эллипс_16" data-name="Эллипс 16" cx="17.043" cy="17.043" r="17.043" transform="translate(1389.455 918.181)" fill="#6c63ff"/>
  <path id="Контур_48" data-name="Контур 48" d="M928.862,753.115A49.236,49.236,0,1,1,978.1,703.879a49.236,49.236,0,0,1-49.236,49.236Zm0-94.684a45.448,45.448,0,1,0,45.448,45.448,45.448,45.448,0,0,0-45.448-45.448Z" transform="translate(477.636 231.345)" fill="#2f2e41"/>
</svg>
