<svg id="Сгруппировать_3" data-name="Сгруппировать 3" xmlns="http://www.w3.org/2000/svg" width="1141" height="822.037" viewBox="0 0 1141 822.037">
  <rect id="Прямоугольник_5" data-name="Прямоугольник 5" width="140" height="2" transform="translate(769 657)" fill="#f2f2f2"/>
  <rect id="Прямоугольник_6" data-name="Прямоугольник 6" width="2" height="18.5" transform="translate(869 658.5)" fill="#f2f2f2"/>
  <rect id="Прямоугольник_7" data-name="Прямоугольник 7" width="2" height="18.5" transform="translate(808 658.5)" fill="#f2f2f2"/>
  <rect id="Прямоугольник_8" data-name="Прямоугольник 8" width="140" height="2" transform="translate(826 731)" fill="#f2f2f2"/>
  <rect id="Прямоугольник_9" data-name="Прямоугольник 9" width="2" height="18.5" transform="translate(864 713)" fill="#f2f2f2"/>
  <rect id="Прямоугольник_10" data-name="Прямоугольник 10" width="2" height="18.5" transform="translate(925 713)" fill="#f2f2f2"/>
  <rect id="Прямоугольник_11" data-name="Прямоугольник 11" width="140" height="2" transform="translate(0 263)" fill="#f2f2f2"/>
  <rect id="Прямоугольник_12" data-name="Прямоугольник 12" width="2" height="18.5" transform="translate(38 245)" fill="#f2f2f2"/>
  <rect id="Прямоугольник_13" data-name="Прямоугольник 13" width="2" height="18.5" transform="translate(99 245)" fill="#f2f2f2"/>
  <rect id="Прямоугольник_14" data-name="Прямоугольник 14" width="140" height="2" transform="translate(0 409)" fill="#f2f2f2"/>
  <rect id="Прямоугольник_15" data-name="Прямоугольник 15" width="2" height="18.5" transform="translate(100 410.5)" fill="#f2f2f2"/>
  <rect id="Прямоугольник_16" data-name="Прямоугольник 16" width="2" height="18.5" transform="translate(39 410.5)" fill="#f2f2f2"/>
  <rect id="Прямоугольник_17" data-name="Прямоугольник 17" width="140" height="2" transform="translate(768 48)" fill="#f2f2f2"/>
  <rect id="Прямоугольник_18" data-name="Прямоугольник 18" width="2" height="18.5" transform="translate(806 30)" fill="#f2f2f2"/>
  <rect id="Прямоугольник_19" data-name="Прямоугольник 19" width="2" height="18.5" transform="translate(867 30)" fill="#f2f2f2"/>
  <rect id="Прямоугольник_20" data-name="Прямоугольник 20" width="140" height="2" transform="translate(1001 155)" fill="#f2f2f2"/>
  <rect id="Прямоугольник_21" data-name="Прямоугольник 21" width="2" height="18.5" transform="translate(1039 137)" fill="#f2f2f2"/>
  <rect id="Прямоугольник_22" data-name="Прямоугольник 22" width="2" height="18.5" transform="translate(1100 137)" fill="#f2f2f2"/>
  <rect id="Прямоугольник_23" data-name="Прямоугольник 23" width="140" height="2" transform="translate(942 410)" fill="#f2f2f2"/>
  <rect id="Прямоугольник_24" data-name="Прямоугольник 24" width="2" height="18.5" transform="translate(980 392)" fill="#f2f2f2"/>
  <rect id="Прямоугольник_25" data-name="Прямоугольник 25" width="2" height="18.5" transform="translate(1041 392)" fill="#f2f2f2"/>
  <rect id="Прямоугольник_26" data-name="Прямоугольник 26" width="140" height="2" transform="translate(92 28)" fill="#f2f2f2"/>
  <rect id="Прямоугольник_27" data-name="Прямоугольник 27" width="2" height="18.5" transform="translate(130 10)" fill="#f2f2f2"/>
  <rect id="Прямоугольник_28" data-name="Прямоугольник 28" width="2" height="18.5" transform="translate(191 10)" fill="#f2f2f2"/>
  <rect id="Прямоугольник_29" data-name="Прямоугольник 29" width="140" height="2" transform="translate(488 80)" fill="#f2f2f2"/>
  <rect id="Прямоугольник_30" data-name="Прямоугольник 30" width="2" height="18.5" transform="translate(526 62)" fill="#f2f2f2"/>
  <rect id="Прямоугольник_31" data-name="Прямоугольник 31" width="2" height="18.5" transform="translate(587 62)" fill="#f2f2f2"/>
  <rect id="Прямоугольник_32" data-name="Прямоугольник 32" width="140" height="2" transform="translate(556 18)" fill="#f2f2f2"/>
  <rect id="Прямоугольник_33" data-name="Прямоугольник 33" width="2" height="18.5" transform="translate(594)" fill="#f2f2f2"/>
  <rect id="Прямоугольник_34" data-name="Прямоугольник 34" width="2" height="18.5" transform="translate(655)" fill="#f2f2f2"/>
  <rect id="Прямоугольник_35" data-name="Прямоугольник 35" width="140" height="2" transform="translate(852 80)" fill="#f2f2f2"/>
  <rect id="Прямоугольник_36" data-name="Прямоугольник 36" width="2" height="18.5" transform="translate(952 81.5)" fill="#f2f2f2"/>
  <rect id="Прямоугольник_37" data-name="Прямоугольник 37" width="2" height="18.5" transform="translate(891 81.5)" fill="#f2f2f2"/>
  <rect id="Прямоугольник_38" data-name="Прямоугольник 38" width="140" height="2" transform="translate(931 270)" fill="#f2f2f2"/>
  <rect id="Прямоугольник_39" data-name="Прямоугольник 39" width="2" height="18.5" transform="translate(1031 271.5)" fill="#f2f2f2"/>
  <rect id="Прямоугольник_40" data-name="Прямоугольник 40" width="2" height="18.5" transform="translate(970 271.5)" fill="#f2f2f2"/>
  <rect id="Прямоугольник_41" data-name="Прямоугольник 41" width="140" height="2" transform="translate(276 40)" fill="#f2f2f2"/>
  <rect id="Прямоугольник_42" data-name="Прямоугольник 42" width="2" height="18.5" transform="translate(376 41.5)" fill="#f2f2f2"/>
  <rect id="Прямоугольник_43" data-name="Прямоугольник 43" width="2" height="18.5" transform="translate(315 41.5)" fill="#f2f2f2"/>
  <path id="Контур_42" data-name="Контур 42" d="M152.251,140.339V293.832s234.076-43.638,380.87,19.84S882.251,340.2,882.251,340.2V140.339Z" transform="translate(-29.5 -38.982)" fill="#2980b9"/>
  <path id="Контур_43" data-name="Контур 43" d="M539.733,368.554C434.6,326.9,152.251,344.312,152.251,344.312V510.629h730V394.936S644.869,410.212,539.733,368.554Z" transform="translate(-29.5 -38.982)" fill="#2980b9"/>
  <rect id="Прямоугольник_44" data-name="Прямоугольник 44" width="1.322" height="49.203" transform="translate(797.967 421.886)" fill="#3f3d56"/>
  <circle id="Эллипс_9" data-name="Эллипс 9" cx="6.958" cy="6.958" r="6.958" transform="translate(791.67 414.928)" fill="#3f3d56"/>
  <path id="Контур_44" data-name="Контур 44" d="M828.128,491.192s-.994-21.379-21.371-18.894" transform="translate(-29.5 -38.982)" fill="#3f3d56"/>
  <path id="Контур_45" data-name="Контур 45" d="M191.534,486.739c4.016,14.845,17.771,24.038,17.771,24.038s7.244-14.874,3.228-29.719-17.771-24.038-17.771-24.038S187.519,471.894,191.534,486.739Z" transform="translate(-29.5 -38.982)" fill="#fff"/>
  <path id="Контур_46" data-name="Контур 46" d="M197.435,483.549c11.019,10.727,12.365,27.217,12.365,27.217s-16.52-.9-27.539-11.629S169.9,471.92,169.9,471.92,186.416,472.822,197.435,483.549Z" transform="translate(-29.5 -38.982)" fill="#3f3d56"/>
  <path id="Контур_47" data-name="Контур 47" d="M494.567,460.493c-8.382,30.986-37.093,50.176-37.093,50.176s-15.121-31.047-6.738-62.033,37.093-50.176,37.093-50.176S502.949,429.507,494.567,460.493Z" transform="translate(-29.5 -38.982)" fill="#fff"/>
  <path id="Контур_48" data-name="Контур 48" d="M418.313,460.493c8.382,30.986,37.093,50.176,37.093,50.176s15.121-31.047,6.738-62.033-37.093-50.176-37.093-50.176S409.931,429.507,418.313,460.493Z" transform="translate(-29.5 -38.982)" fill="#fff"/>
  <path id="Контур_49" data-name="Контур 49" d="M430.63,453.834c23,22.39,25.81,56.81,25.81,56.81s-34.482-1.883-57.483-24.273-25.81-56.81-25.81-56.81S407.629,431.443,430.63,453.834Z" transform="translate(-29.5 -38.982)" fill="#3f3d56"/>
  <path id="Контур_50" data-name="Контур 50" d="M482.25,453.834c-23,22.39-25.81,56.81-25.81,56.81s34.482-1.883,57.483-24.273,25.81-56.81,25.81-56.81S505.251,431.443,482.25,453.834Z" transform="translate(-29.5 -38.982)" fill="#3f3d56"/>
  <path id="Контур_51" data-name="Контур 51" d="M575.554,510.809a7.935,7.935,0,1,1,7.935-7.935,7.935,7.935,0,0,1-7.935,7.935Zm0-14.547a6.612,6.612,0,1,0,6.612,6.612,6.612,6.612,0,0,0-6.612-6.612Z" transform="translate(-29.5 -38.982)" fill="#f0f0f0"/>
  <path id="Контур_52" data-name="Контур 52" d="M766.65,387.819a7.935,7.935,0,1,1,7.935-7.935,7.935,7.935,0,0,1-7.935,7.935Zm0-14.547a6.612,6.612,0,1,0,6.612,6.612,6.612,6.612,0,0,0-6.612-6.612Z" transform="translate(-29.5 -38.982)" fill="#3f3d56"/>
  <path id="Контур_53" data-name="Контур 53" d="M226.971,380.738H213.917V367.684h13.054Zm-12.049-1h11.045V368.688H214.921Z" transform="translate(-29.5 -38.982)" fill="#3f3d56"/>
  <path id="Контур_54" data-name="Контур 54" d="M414.761,325.855H401.707V312.8H414.76Zm-12.049-1h11.045V313.806H402.711Z" transform="translate(-29.5 -38.982)" fill="#3f3d56"/>
  <circle id="Эллипс_10" data-name="Эллипс 10" cx="6.664" cy="6.664" r="6.664" transform="translate(722.642 445.779)" fill="#f0f0f0"/>
  <path id="Контур_55" data-name="Контур 55" d="M758.806,510.677a19.252,19.252,0,1,1,19.252-19.252A19.252,19.252,0,0,1,758.806,510.677Zm0-37.024a17.771,17.771,0,1,0,17.771,17.772,17.772,17.772,0,0,0-17.771-17.772Z" transform="translate(-29.5 -38.982)" fill="#2f2e41"/>
  <path id="Контур_56" data-name="Контур 56" d="M612.3,311.7c.635.617,1.292,1.234,1.953,1.834l-.6.665c-.668-.607-1.333-1.231-1.975-1.855Z" transform="translate(-29.5 -38.982)" fill="#e6e6e6"/>
  <path id="Контур_57" data-name="Контур 57" d="M721.131,195.877c.894.812,1.776,1.65,2.624,2.493l-.633.637c-1.269-1.261-2.611-2.507-3.97-3.686l.589-.678Q720.44,195.25,721.131,195.877Zm-5.647-4.682-.541.717c-1.438-1.086-2.928-2.133-4.431-3.114l.491-.752c1.518.992,3.026,2.052,4.48,3.149Zm12.024,11.163c1.2,1.369,2.37,2.794,3.471,4.236l-.714.545c-1.089-1.426-2.244-2.835-3.433-4.188Zm-21.191-17.146-.439.784c-1.569-.877-3.19-1.71-4.816-2.477l.383-.812c1.645.776,3.284,1.618,4.872,2.5Zm27.835,25.848c1,1.517,1.962,3.09,2.857,4.674l-.782.442c-.885-1.566-1.835-3.121-2.825-4.621Zm-37.739-30.515-.326.837c-1.675-.652-3.393-1.254-5.106-1.788l.268-.857c1.732.541,3.469,1.15,5.163,1.809ZM739.54,220.6c.784,1.646,1.521,3.337,2.188,5.029l-.836.33c-.66-1.672-1.388-3.345-2.163-4.972Zm-53.568-43.314-.208.874c-1.749-.416-3.534-.777-5.305-1.072l.147-.886c1.791.3,3.6.664,5.366,1.085ZM743.564,230.8c.551,1.737,1.048,3.512,1.477,5.279l-.873.212c-.425-1.746-.916-3.5-1.461-5.219Zm-68.387-55.307-.087.894c-1.79-.174-3.608-.288-5.4-.339l.025-.9C671.528,175.2,673.367,175.312,675.177,175.488Zm70.977,65.953c.308,1.792.558,3.618.744,5.429l-.893.091c-.184-1.79-.431-3.6-.736-5.368Zm-81.92-66.266.036.9c-1.8.071-3.615.205-5.4.4l-.1-.893c1.809-.2,3.647-.331,5.464-.4Zm83.036,77.16c.062,1.818.061,3.662,0,5.478l-.9-.031c.062-1.8.062-3.618,0-5.416Zm-93.924-75.983.157.884c-1.769.314-3.552.695-5.3,1.13l-.217-.871c1.767-.44,3.57-.825,5.359-1.142Zm93.549,86.924c-.186,1.809-.437,3.634-.746,5.424l-.885-.152c.305-1.77.554-3.575.738-5.364ZM642.715,179l.276.854c-1.713.554-3.428,1.175-5.1,1.845l-.334-.833C639.248,180.191,640.983,179.563,642.715,179ZM745.034,274.06c-.431,1.766-.929,3.538-1.479,5.269l-.856-.272c.544-1.711,1.037-3.464,1.463-5.21ZM632.543,183.085l.391.808c-1.621.785-3.235,1.636-4.8,2.53l-.446-.779c1.581-.9,3.214-1.766,4.854-2.559Zm109.175,101.4c-.67,1.691-1.407,3.381-2.191,5.021l-.81-.388c.775-1.621,1.5-3.291,2.166-4.964ZM623.033,188.528l.5.747c-1.5,1-2.975,2.063-4.4,3.161l-.549-.711c1.438-1.111,2.935-2.187,4.447-3.2ZM736.994,294.359c-.9,1.582-1.858,3.154-2.861,4.671l-.749-.5c.992-1.5,1.943-3.054,2.828-4.618ZM614.37,195.221l.6.671c-1.342,1.193-2.662,2.449-3.923,3.733L610.4,199C611.677,197.7,613.012,196.427,614.37,195.221ZM730.959,303.494c-1.1,1.443-2.27,2.868-3.471,4.237l-.675-.592c1.188-1.353,2.342-2.763,3.432-4.19ZM607.38,203.616c-1.172,1.366-2.311,2.789-3.386,4.227l-.72-.537c1.086-1.455,2.238-2.893,3.423-4.275Zm-6.475,8.675c-.975,1.514-1.909,3.078-2.776,4.65l-.786-.433c.876-1.59,1.821-3.172,2.807-4.7Zm-5.224,9.481c-.756,1.629-1.465,3.306-2.107,4.982l-.839-.321c.649-1.7,1.367-3.391,2.132-5.039Zm-3.867,10.1c-.526,1.72-1,3.479-1.4,5.227l-.875-.2c.41-1.768.888-3.547,1.42-5.287Zm-2.446,10.54c-.286,1.777-.513,3.585-.677,5.372l-.894-.082c.165-1.807.4-3.636.684-5.433Zm-.985,10.779c-.041,1.8-.021,3.619.06,5.416l-.9.041c-.082-1.817-.1-3.66-.061-5.478Zm.489,10.816c.2,1.789.472,3.593.8,5.36l-.883.162c-.328-1.787-.6-3.611-.805-5.42Zm1.955,10.652c.446,1.746.958,3.5,1.52,5.2l-.853.282c-.569-1.726-1.086-3.5-1.537-5.262Zm3.394,10.289c.68,1.668,1.427,3.331,2.22,4.946l-.806.4c-.8-1.633-1.557-3.316-2.245-5ZM599,294.677c.9,1.556,1.87,3.1,2.877,4.589l-.744.5c-1.019-1.507-2-3.068-2.91-4.641Zm6.064,8.968c1.107,1.415,2.277,2.811,3.48,4.15l-.668.6c-1.216-1.354-2.4-2.766-3.519-4.2Z" transform="translate(-29.5 -38.982)" fill="#e6e6e6"/>
  <path id="Контур_58" data-name="Контур 58" d="M723.011,311.18l.633.637c-.644.639-1.3,1.27-1.955,1.876l-.611-.658C721.724,312.436,722.375,311.812,723.011,311.18Z" transform="translate(-29.5 -38.982)" fill="#e6e6e6"/>
  <path id="Контур_59" data-name="Контур 59" d="M673.582,510.12c-.174-.285-4.288-7.153-5.714-21.416-1.308-13.085-.467-35.141,10.971-65.906,21.67-58.284-4.994-105.31-5.266-105.779l1.315-.763c.069.119,6.949,12.109,11.014,31.2a136.119,136.119,0,0,1-5.638,75.871c-21.633,58.184-5.55,85.728-5.385,86Z" transform="translate(-29.5 -38.982)" fill="#3f3d56"/>
  <circle id="Эллипс_11" data-name="Эллипс 11" cx="9.882" cy="9.882" r="9.882" transform="translate(625.726 254.851)" fill="#fff"/>
  <circle id="Эллипс_12" data-name="Эллипс 12" cx="9.882" cy="9.882" r="9.882" transform="translate(656.894 291.339)" fill="#3f3d56"/>
  <circle id="Эллипс_13" data-name="Эллипс 13" cx="9.882" cy="9.882" r="9.882" transform="translate(635.609 315.665)" fill="#3f3d56"/>
  <circle id="Эллипс_14" data-name="Эллипс 14" cx="9.882" cy="9.882" r="9.882" transform="translate(661.455 336.19)" fill="#3f3d56"/>
  <circle id="Эллипс_15" data-name="Эллипс 15" cx="9.882" cy="9.882" r="9.882" transform="translate(628.007 368.118)" fill="#fff"/>
  <path id="Контур_60" data-name="Контур 60" d="M679.552,510.483s-9.882-24.326,19.765-42.57Z" transform="translate(-29.5 -38.982)" fill="#3f3d56"/>
  <path id="Контур_61" data-name="Контур 61" d="M667.4,510.042s-4.5-25.868-39.308-25.647Z" transform="translate(-29.5 -38.982)" fill="#3f3d56"/>
  <path id="Контур_62" data-name="Контур 62" d="M295.357,510.12c-.174-.285-4.288-7.153-5.714-21.416-1.308-13.085-.467-35.141,10.971-65.906,21.67-58.284-4.994-105.31-5.266-105.779l1.315-.763c.069.119,6.949,12.109,11.014,31.2a136.119,136.119,0,0,1-5.637,75.871c-21.633,58.184-5.55,85.728-5.385,86Z" transform="translate(-29.5 -38.982)" fill="#3f3d56"/>
  <circle id="Эллипс_16" data-name="Эллипс 16" cx="9.882" cy="9.882" r="9.882" transform="translate(247.502 254.851)" fill="#3f3d56"/>
  <circle id="Эллипс_17" data-name="Эллипс 17" cx="9.882" cy="9.882" r="9.882" transform="translate(278.669 291.339)" fill="#3f3d56"/>
  <circle id="Эллипс_18" data-name="Эллипс 18" cx="9.882" cy="9.882" r="9.882" transform="translate(257.384 315.665)" fill="#fff"/>
  <circle id="Эллипс_19" data-name="Эллипс 19" cx="9.882" cy="9.882" r="9.882" transform="translate(283.23 336.19)" fill="#fff"/>
  <circle id="Эллипс_20" data-name="Эллипс 20" cx="9.882" cy="9.882" r="9.882" transform="translate(249.782 368.118)" fill="#3f3d56"/>
  <path id="Контур_63" data-name="Контур 63" d="M301.327,510.483s-9.882-24.326,19.765-42.57Z" transform="translate(-29.5 -38.982)" fill="#3f3d56"/>
  <path id="Контур_64" data-name="Контур 64" d="M289.173,510.042s-4.5-25.868-39.308-25.647Z" transform="translate(-29.5 -38.982)" fill="#3f3d56"/>
  <path id="Контур_65" data-name="Контур 65" d="M491.746,192.674h-106.8l.428-1.31c.075-.23,7.895-22.923,42.5-18.542,3.265-1.115,35.121-11.516,54.188.169,8.462,5.186,12.752,10.005,12.752,14.326a6.352,6.352,0,0,1-2.833,5.209Zm-103.906-2H491.146a4.3,4.3,0,0,0,1.674-3.386c-.016-2.456-2.076-6.634-11.8-12.592-18.883-11.572-52.37-.027-52.706.091l-.224.079-.235-.031c-28.3-3.667-37.794,11.241-40.018,15.838Z" transform="translate(-29.5 -38.982)" fill="#e6e6e6"/>
  <path id="Контур_66" data-name="Контур 66" d="M847.225,238.154H774.787l.428-1.31c.052-.157,5.4-15.656,28.89-12.714,2.574-.872,23.852-7.695,36.683.169,5.8,3.554,8.741,6.893,8.741,9.923a4.622,4.622,0,0,1-2.064,3.785Zm-69.512-2h68.9a2.554,2.554,0,0,0,.917-1.96c-.014-1.285-1.043-4.058-7.786-8.19-12.569-7.7-34.977.012-35.2.091l-.224.078-.236-.03c-17.983-2.328-24.535,6.564-26.367,10.011Z" transform="translate(-29.5 -38.982)" fill="#e6e6e6"/>
  <path id="Контур_67" data-name="Контур 67" d="M543.719,264.418H471.281l.428-1.31c.052-.158,5.395-15.657,28.89-12.714,2.575-.872,23.852-7.695,36.683.169,5.8,3.554,8.741,6.893,8.741,9.923a4.621,4.621,0,0,1-2.063,3.785Zm-69.511-2h68.9a2.558,2.558,0,0,0,.917-1.96c-.013-1.285-1.043-4.058-7.786-8.19-12.57-7.7-34.978.012-35.2.091l-.224.078-.235-.03c-17.988-2.33-24.536,6.564-26.367,10.011Z" transform="translate(-29.5 -38.982)" fill="#e6e6e6"/>
  <circle id="Эллипс_21" data-name="Эллипс 21" cx="29.425" cy="29.425" r="29.425" transform="translate(161.764 131.203)" opacity="0.1"/>
  <path id="Контур_68" data-name="Контур 68" d="M225.648,231.357a38.69,38.69,0,1,1,38.69-38.69A38.69,38.69,0,0,1,225.648,231.357Zm0-75.38a36.69,36.69,0,1,0,36.69,36.69,36.69,36.69,0,0,0-36.69-36.69Z" transform="translate(-29.5 -38.982)" fill="#e6e6e6"/>
  <path id="Контур_69" data-name="Контур 69" d="M117.252,110.574v437h798v-437Zm760,399h-722v-361h722Z" transform="translate(-29.5 -38.982)" fill="#3f3d56"/>
  <path id="Контур_70" data-name="Контур 70" d="M303.441,509.574l18.32,38H149.9l3.35-399h271.9s-69.66,150.16-183.9,232Z" transform="translate(-29.5 -38.982)" fill="#d0cde1" opacity="0.5"/>
  <path id="Контур_71" data-name="Контур 71" d="M727.062,509.574l-18.32,38H880.6l-3.35-399h-271.9s69.66,150.16,183.9,232Z" transform="translate(-29.5 -38.982)" fill="#d0cde1" opacity="0.5"/>
  <rect id="Прямоугольник_45" data-name="Прямоугольник 45" width="112" height="19" transform="translate(112.752 328.592)" fill="#3f3d56"/>
  <rect id="Прямоугольник_46" data-name="Прямоугольник 46" width="112" height="19" transform="translate(749.752 328.592)" fill="#3f3d56"/>
  <path id="Контур_72" data-name="Контур 72" d="M1014.75,389.574l-4,94-25,94s-26,46-6,46,26-43,26-43l32-88,6-81Z" transform="translate(-29.5 -38.982)" fill="#ffb8b8"/>
  <path id="Контур_73" data-name="Контур 73" d="M957.752,740.574l2,72h20l8-46s7-19,7-20S957.752,740.574,957.752,740.574Z" transform="translate(-29.5 -38.982)" fill="#ffb8b8"/>
  <path id="Контур_74" data-name="Контур 74" d="M982.752,808.574h-25s-10,15-12,15-31,1-13,14,35,7,35,7v12s20,10,21,0q.015-.15.029-.3A71.38,71.38,0,0,0,984.4,824.5C982.016,818.14,980.052,810.733,982.752,808.574Z" transform="translate(-29.5 -38.982)" fill="#2f2e41"/>
  <path id="Контур_75" data-name="Контур 75" d="M1022.25,735.114l23,68.256,19.123-5.858-5.825-46.326s1.128-20.217.835-21.173S1022.25,735.114,1022.25,735.114Z" transform="translate(-29.5 -38.982)" fill="#ffb8b8"/>
  <path id="Контур_76" data-name="Контур 76" d="M1066.07,792.809l-23.9,7.323s-5.168,17.271-7.08,17.857-29.347,10.036-8.329,17.194,35.515-3.559,35.515-3.559l3.515,11.474s22.052,3.7,20.079-6.151q-.029-.148-.06-.3a71.381,71.381,0,0,0-13.5-29.1C1068.17,802.17,1064.12,795.664,1066.07,792.809Z" transform="translate(-29.5 -38.982)" fill="#2f2e41"/>
  <circle id="Эллипс_22" data-name="Эллипс 22" cx="29" cy="29" r="29" transform="translate(920.752 268.092)" fill="#ffb8b8"/>
  <path id="Контур_77" data-name="Контур 77" d="M973.752,356.574s18,25,14,31,43-5,43-5-29-33-28-39S973.752,356.574,973.752,356.574Z" transform="translate(-29.5 -38.982)" fill="#ffb8b8"/>
  <path id="Контур_78" data-name="Контур 78" d="M1011.75,373.574s-24,0-32,10-17,31-17,31-8.507,3.19-11.564,20.038a57.844,57.844,0,0,0,5.168,35.581c5.043,10.359,10.945,25.1,5.9,28.882-8,6-31,55-31,137,0,45.7-13.2,77.263-24.885,96.257-9.779,15.894,3.957,35.83,22.309,32.447q.534-.1,1.076-.2c36-7,141-20,141-20l-29-71s-14-23-5-59-16-102-16-102,33.5-75.5,27.5-92.5-13.5-51.5-20.5-50.5a112.031,112.031,0,0,0-16,4Z" transform="translate(-29.5 -38.982)" fill="#2f2e41"/>
  <path id="Контур_79" data-name="Контур 79" d="M979.752,389.574l-4,94-25,94s-26,46-6,46,26-43,26-43l32-88,6-81Z" transform="translate(-29.5 -38.982)" fill="#ffb8b8"/>
  <path id="Контур_80" data-name="Контур 80" d="M997.752,379.574s-22,0-25,10-3.591,11.454-3.591,11.454,8.591-11.454,19.591,5.546,25,21,25,21S1016.75,387.574,997.752,379.574Z" transform="translate(-29.5 -38.982)" fill="#2f2e41"/>
  <circle id="Эллипс_23" data-name="Эллипс 23" cx="40" cy="40" r="40" transform="translate(929.752 240.092)" fill="#2f2e41"/>
  <path id="Контур_81" data-name="Контур 81" d="M992.953,351.674A40,40,0,0,1,965.13,304.5c-.281.78-.547,1.569-.782,2.376a40,40,0,0,0,76.8,22.391c.235-.807.435-1.615.618-2.424A40,40,0,0,1,992.953,351.674Z" transform="translate(-29.5 -38.982)" fill="#2f2e41"/>
  <ellipse id="Эллипс_24" data-name="Эллипс 24" cx="3" cy="5" rx="3" ry="5" transform="translate(936.752 297.092)" fill="#ffb8b8"/>
  <circle id="Эллипс_25" data-name="Эллипс 25" cx="14" cy="14" r="14" transform="translate(970.752 226.092)" fill="#2f2e41"/>
  <path id="Контур_82" data-name="Контур 82" d="M997.252,276.074a14,14,0,0,1,12.5-13.917,14,14,0,1,0,0,27.834,14,14,0,0,1-12.5-13.917Z" transform="translate(-29.5 -38.982)" fill="#2f2e41"/>
  <path id="Контур_83" data-name="Контур 83" d="M966.252,303.074a18,18,0,0,0-18,18h36A18,18,0,0,0,966.252,303.074Z" transform="translate(-29.5 -38.982)" fill="#2f2e41"/>
  <rect id="Прямоугольник_47" data-name="Прямоугольник 47" width="140" height="2" transform="translate(610 620)" fill="#f2f2f2"/>
  <rect id="Прямоугольник_48" data-name="Прямоугольник 48" width="2" height="18.5" transform="translate(648 602)" fill="#f2f2f2"/>
  <rect id="Прямоугольник_49" data-name="Прямоугольник 49" width="2" height="18.5" transform="translate(709 602)" fill="#f2f2f2"/>
  <rect id="Прямоугольник_50" data-name="Прямоугольник 50" width="140" height="2" transform="translate(508 573)" fill="#f2f2f2"/>
  <rect id="Прямоугольник_51" data-name="Прямоугольник 51" width="2" height="18.5" transform="translate(546 555)" fill="#f2f2f2"/>
  <rect id="Прямоугольник_52" data-name="Прямоугольник 52" width="2" height="18.5" transform="translate(607 555)" fill="#f2f2f2"/>
  <rect id="Прямоугольник_53" data-name="Прямоугольник 53" width="140" height="2" transform="translate(175 686)" fill="#f2f2f2"/>
  <rect id="Прямоугольник_54" data-name="Прямоугольник 54" width="2" height="18.5" transform="translate(213 668)" fill="#f2f2f2"/>
  <rect id="Прямоугольник_55" data-name="Прямоугольник 55" width="2" height="18.5" transform="translate(274 668)" fill="#f2f2f2"/>
  <rect id="Прямоугольник_56" data-name="Прямоугольник 56" width="140" height="2" transform="translate(346 639)" fill="#f2f2f2"/>
  <rect id="Прямоугольник_57" data-name="Прямоугольник 57" width="2" height="18.5" transform="translate(446 640.5)" fill="#f2f2f2"/>
  <rect id="Прямоугольник_58" data-name="Прямоугольник 58" width="2" height="18.5" transform="translate(385 640.5)" fill="#f2f2f2"/>
  <rect id="Прямоугольник_59" data-name="Прямоугольник 59" width="140" height="2" transform="translate(127 586)" fill="#f2f2f2"/>
  <rect id="Прямоугольник_60" data-name="Прямоугольник 60" width="2" height="18.5" transform="translate(227 587.5)" fill="#f2f2f2"/>
  <rect id="Прямоугольник_61" data-name="Прямоугольник 61" width="2" height="18.5" transform="translate(166 587.5)" fill="#f2f2f2"/>
  <rect id="Прямоугольник_62" data-name="Прямоугольник 62" width="140" height="2" transform="translate(403 713)" fill="#f2f2f2"/>
  <rect id="Прямоугольник_63" data-name="Прямоугольник 63" width="2" height="18.5" transform="translate(441 695)" fill="#f2f2f2"/>
  <rect id="Прямоугольник_64" data-name="Прямоугольник 64" width="2" height="18.5" transform="translate(502 695)" fill="#f2f2f2"/>
</svg>
